<?xml version="1.0" encoding="iso-8859-1"?>
<!-- Uploaded to: SVG Repo, www.svgrepo.com, Generator: SVG Repo Mixer Tools -->
<svg version="1.1" id="Layer_1" xmlns="http://www.w3.org/2000/svg" xmlns:xlink="http://www.w3.org/1999/xlink" 
	 viewBox="0 0 512 512" xml:space="preserve">
<path style="fill:#C7E9F4;" d="M408.31,512H103.688c-11.28,0-20.426-9.145-20.426-20.426V110.581
	c0-11.28,9.145-20.426,20.426-20.426H408.31c11.28,0,20.426,9.145,20.426,20.426v380.993C428.736,502.855,419.592,512,408.31,512z"
	/>
<path style="fill:#80D0E1;" d="M408.31,90.156H256V512h152.31c11.28,0,20.426-9.145,20.426-20.426V110.581
	C428.736,99.301,419.592,90.156,408.31,90.156z"/>
<rect x="83.268" y="181.106" style="fill:#FF5E5B;" width="345.477" height="239.946"/>
<rect x="256" y="181.106" style="fill:#FF423D;" width="172.732" height="239.946"/>
<path style="fill:#80D0E1;" d="M450.486,131.007H61.514c-11.28,0-20.426-9.145-20.426-20.426V20.426C41.088,9.145,50.233,0,61.514,0
	h388.973c11.28,0,20.426,9.145,20.426,20.426v90.156C470.912,121.861,461.767,131.007,450.486,131.007z"/>
<path style="fill:#51B3DA;" d="M450.486,0H256v131.007h194.486c11.28,0,20.426-9.145,20.426-20.426V20.426
	C470.912,9.145,461.767,0,450.486,0z"/>
<path style="fill:#FFEDBE;" d="M300.739,280.652h-24.313v-24.313c0-11.28-9.145-20.426-20.426-20.426
	c-11.28,0-20.426,9.145-20.426,20.426v24.313h-24.313c-11.28,0-20.426,9.145-20.426,20.426s9.145,20.426,20.426,20.426h24.313
	v24.313c0,11.28,9.145,20.426,20.426,20.426c11.28,0,20.426-9.145,20.426-20.426v-24.313h24.313c11.28,0,20.426-9.145,20.426-20.426
	S312.02,280.652,300.739,280.652z"/>
<path style="fill:#FFDA79;" d="M300.739,280.652h-24.313v-24.313c0-11.28-9.145-20.426-20.426-20.426c-0.001,0-0.003,0-0.004,0
	v130.329c0.001,0,0.003,0,0.004,0c11.28,0,20.426-9.145,20.426-20.426v-24.313h24.313c11.28,0,20.426-9.145,20.426-20.426
	C321.164,289.797,312.02,280.652,300.739,280.652z"/>
</svg>