<svg xmlns="http://www.w3.org/2000/svg" viewBox="0 0 24 24">
  <!-- Reloj (color negro) -->
  <path fill="#000000" d="M11.99,2C6.47,2 2,6.48 2,12s4.47,10 9.99,10C17.52,22 22,17.52 22,12S17.52,2 11.99,2zM12,20c-4.42,0 -8,-3.58 -8,-8s3.58,-8 8,-8 8,3.58 8,8 -3.58,8 -8,8z"/>
  <path fill="#000000" d="M12.5,7H11v6l5.25,3.15 0.75,-1.23 -4.5,-2.67z"/>
  
  <!-- Cruz en forma de X en diagonal (color rojo) en la esquina superior derecha -->
  <path fill="#E53935" d="M19,4l-1.5,-1.5l-2.5,2.5l-2.5,-2.5l-1.5,1.5l2.5,2.5l-2.5,2.5l1.5,1.5l2.5,-2.5l2.5,2.5l1.5,-1.5l-2.5,-2.5z"/>
</svg>
