<svg xmlns="http://www.w3.org/2000/svg" viewBox="0 0 24 24">
  <!-- Píldora (estilo cápsula) -->
  <path fill="#64B5F6" d="M17.5,6.5c-1.5-1.5-3.8-1.5-5.3,0L6.5,12.2c-1.5,1.5-1.5,3.8,0,5.3s3.8,1.5,5.3,0l5.7-5.7
    C19,10.3,19,8,17.5,6.5z M11,16.4c-0.8,0.8-2.1,0.8-2.9,0c-0.8-0.8-0.8-2.1,0-2.9l3.7-3.7l2.9,2.9L11,16.4z"/>
  
  <!-- Sombra/brillo en la píldora para efecto 3D -->
  <path fill="#90CAF9" d="M12.7,9.9l-3.7,3.7c-0.8,0.8-0.8,2.1,0,2.9c0.4,0.4,0.9,0.6,1.4,0.6c0.5,0,1-0.2,1.4-0.6l3.7-3.7L12.7,9.9z"/>
  
  <!-- Marca de verificación (check mark) -->
  <path fill="#4CAF50" d="M19.2,6.8l-1.4-1.4l-5.4,5.4l-2.2-2.2l-1.4,1.4l3.6,3.6L19.2,6.8z"/>
</svg>
