<!DOCTYPE svg PUBLIC "-//W3C//DTD SVG 1.1//EN" "http://www.w3.org/Graphics/SVG/1.1/DTD/svg11.dtd">
<!-- Uploaded to: SVG Repo, www.svgrepo.com, Transformed by: SVG Repo Mixer Tools -->
<svg height="800px" width="800px" version="1.1" id="Layer_1" xmlns="http://www.w3.org/2000/svg" xmlns:xlink="http://www.w3.org/1999/xlink" viewBox="-51.2 -51.2 614.40 614.40" xml:space="preserve" fill="#000000" stroke="#000000" transform="rotate(0)">
<g id="SVGRepo_bgCarrier" stroke-width="0" transform="translate(0,0), scale(1)">
<rect x="-51.2" y="-51.2" width="614.40" height="614.40" rx="307.2" fill="#b3ccff" strokewidth="0"/>
</g>
<g id="SVGRepo_tracerCarrier" stroke-linecap="round" stroke-linejoin="round" stroke="#CCCCCC" stroke-width="1.0240019999999999"/>
<g id="SVGRepo_iconCarrier"> <path style="fill:#DFDFE1;" d="M479.587,188.925c43.218-43.221,43.218-113.29,0-156.512l0,0 c-43.221-43.218-113.292-43.218-156.513,0L32.413,323.075c-43.218,43.221-43.216,113.29,0.002,156.512l0,0 c43.219,43.218,113.29,43.218,156.51,0L479.587,188.925z"/> <path style="fill:#CFCDD2;" d="M479.587,32.414L32.414,479.587c43.219,43.218,113.29,43.218,156.51,0l290.663-290.662 C522.805,145.704,522.805,75.635,479.587,32.414z"/> <path style="fill:#FF4F19;" d="M177.743,177.745L32.413,323.075c-43.218,43.221-43.216,113.29,0.002,156.512 c43.219,43.218,113.29,43.218,156.51,0l145.331-145.331L177.743,177.745z"/> <path style="fill:#FC0023;" d="M255.999,256L32.414,479.587c43.219,43.218,113.29,43.218,156.51,0l145.331-145.331L255.999,256z"/> </g>
</svg>